<?xml version="1.0" encoding="utf-8"?>
<svg xmlns="http://www.w3.org/2000/svg" height="100%" style="fill-rule:evenodd;clip-rule:evenodd;stroke-linejoin:round;stroke-miterlimit:2;" version="1.1" viewBox="0 0 400 75" width="100%">
  <rect height="75" id="Artboard1" style="fill:none;" width="400" x="0" y="0"/>
  <g id="Artboard11">
    <g transform="matrix(0.5,0,0,0.5,2.1515,-20.1573)">
      <g transform="matrix(176,0,0,176,-5.05701,152.065)">
        <path d="M0.041,-0.066l0.073,0l0,-0.435l-0.073,0l0,-0.066l0.288,-0c0.072,-0 0.127,0.014 0.164,0.041c0.038,0.027 0.057,0.068 0.057,0.123c0,0.057 -0.019,0.099 -0.057,0.128c-0.037,0.029 -0.092,0.044 -0.164,0.044l-0.072,-0l-0,-0.066l0.064,-0c0.039,-0 0.068,-0.009 0.089,-0.027c0.021,-0.018 0.031,-0.044 0.031,-0.078c-0,-0.032 -0.009,-0.057 -0.028,-0.074c-0.018,-0.017 -0.044,-0.025 -0.079,-0.025l-0.115,0l-0,0.435l0.075,0l-0,0.066l-0.253,-0l-0,-0.066Z" style="fill:#356999;fill-rule:nonzero;"/>
      </g>
      <g transform="matrix(176,0,0,176,84.879,152.065)">
        <path d="M0.238,0.012c-0.043,0 -0.08,-0.009 -0.113,-0.026c-0.032,-0.017 -0.057,-0.042 -0.075,-0.074c-0.018,-0.032 -0.027,-0.069 -0.027,-0.11c0,-0.041 0.009,-0.078 0.027,-0.109c0.018,-0.031 0.043,-0.056 0.076,-0.073c0.032,-0.017 0.069,-0.026 0.112,-0.026c0.043,0 0.08,0.009 0.113,0.026c0.033,0.017 0.058,0.042 0.076,0.073c0.018,0.031 0.027,0.067 0.027,0.108c0,0.041 -0.009,0.078 -0.027,0.11c-0.018,0.032 -0.043,0.057 -0.076,0.075c-0.033,0.017 -0.07,0.026 -0.113,0.026Zm0,-0.073c0.037,0 0.067,-0.012 0.09,-0.038c0.023,-0.025 0.034,-0.058 0.034,-0.1c-0,-0.041 -0.011,-0.073 -0.034,-0.097c-0.023,-0.025 -0.053,-0.037 -0.09,-0.037c-0.037,0 -0.067,0.012 -0.089,0.037c-0.022,0.025 -0.033,0.057 -0.033,0.098c0,0.041 0.011,0.075 0.034,0.1c0.022,0.025 0.051,0.037 0.088,0.037Z" style="fill:#d9777a;fill-rule:nonzero;"/>
      </g>
      <g transform="matrix(176,0,0,176,156.687,152.065)">
        <path d="M0.024,-0l0,-0.062l0.067,0l0,-0.453l-0.065,0l0,-0.062l0.159,0l0,0.515l0.06,-0l0,0.062l-0.221,-0Z" style="fill:#356999;fill-rule:nonzero;"/>
      </g>
      <g transform="matrix(176,0,0,176,201.391,152.065)">
        <path d="M0.127,-0.478c-0.018,0 -0.033,-0.006 -0.045,-0.017c-0.012,-0.011 -0.018,-0.025 -0.018,-0.042c0,-0.017 0.006,-0.032 0.018,-0.043c0.012,-0.011 0.027,-0.017 0.045,-0.017c0.018,0 0.033,0.006 0.045,0.017c0.011,0.011 0.017,0.026 0.017,0.043c0.001,0.017 -0.005,0.031 -0.017,0.042c-0.012,0.011 -0.027,0.017 -0.045,0.017Zm-0.107,0.478l-0,-0.062l0.07,0l-0,-0.271l-0.069,0l-0,-0.062l0.162,0l0,0.333l0.066,0l0,0.062l-0.229,-0Z" style="fill:#356999;fill-rule:nonzero;"/>
      </g>
      <g transform="matrix(176,0,0,176,242.047,152.065)">
        <path d="M0.426,-0.07c-0.045,0.053 -0.107,0.08 -0.185,0.08c-0.042,0 -0.079,-0.009 -0.112,-0.027c-0.034,-0.018 -0.059,-0.043 -0.078,-0.075c-0.018,-0.032 -0.027,-0.068 -0.027,-0.109c0,-0.04 0.009,-0.076 0.027,-0.106c0.017,-0.031 0.041,-0.056 0.072,-0.073c0.031,-0.017 0.066,-0.026 0.105,-0.026c0.028,0 0.053,0.005 0.073,0.014c0.022,0.009 0.038,0.022 0.051,0.039l0,-0.044l0.072,0l0,0.148l-0.065,0c-0.005,-0.028 -0.018,-0.05 -0.037,-0.065c-0.019,-0.015 -0.044,-0.023 -0.074,-0.023c-0.039,0 -0.07,0.012 -0.094,0.037c-0.024,0.025 -0.036,0.057 -0.036,0.096c0,0.042 0.013,0.076 0.038,0.103c0.024,0.026 0.057,0.039 0.097,0.039c0.03,0 0.056,-0.005 0.077,-0.016c0.021,-0.011 0.042,-0.028 0.062,-0.049l0.034,0.057Z" style="fill:#356999;fill-rule:nonzero;"/>
      </g>
      <g transform="matrix(176,0,0,176,317.023,152.065)">
        <path d="M0.098,0.089l0.042,0c0.018,0 0.032,-0.001 0.042,-0.004c0.011,-0.003 0.02,-0.009 0.027,-0.018c0.008,-0.009 0.015,-0.022 0.022,-0.041l0.02,-0.051l-0.033,0l-0.147,-0.308l-0.065,0l-0,-0.062l0.216,0l0,0.062l-0.055,0l0.108,0.243l0.098,-0.243l-0.063,0l0,-0.062l0.208,0l0,0.062l-0.057,0l-0.152,0.357c-0.016,0.039 -0.029,0.067 -0.04,0.084c-0.011,0.017 -0.025,0.031 -0.044,0.04c-0.019,0.009 -0.045,0.014 -0.078,0.014l-0.049,0l-0,-0.073Z" style="fill:#356999;fill-rule:nonzero;"/>
      </g>
      <g transform="matrix(176,0,0,176,408.543,152.065)">
        <path d="M0.791,-0.062l0,0.062l-0.219,-0l0,-0.062l0.059,0l-0,-0.193c-0,-0.025 -0.006,-0.045 -0.019,-0.059c-0.012,-0.015 -0.029,-0.022 -0.05,-0.022c-0.035,0 -0.073,0.013 -0.113,0.04c0.001,0.011 0.002,0.019 0.002,0.026l-0,0.208l0.067,0l0,0.062l-0.22,-0l-0,-0.062l0.06,0l-0,-0.193c-0,-0.025 -0.006,-0.045 -0.019,-0.059c-0.012,-0.015 -0.029,-0.022 -0.05,-0.022c-0.029,0 -0.065,0.012 -0.106,0.035l-0,0.239l0.064,0l-0,0.062l-0.227,0l-0,-0.062l0.07,0l-0,-0.271l-0.069,0l-0,-0.062l0.159,0l0.001,0.038c0.048,-0.032 0.094,-0.048 0.139,-0.048c0.027,0 0.05,0.006 0.069,0.017c0.019,0.011 0.034,0.026 0.044,0.045c0.028,-0.02 0.055,-0.035 0.08,-0.046c0.026,-0.011 0.053,-0.016 0.081,-0.016c0.038,0 0.069,0.012 0.094,0.036c0.025,0.024 0.037,0.056 0.037,0.097l0,0.21l0.066,0Z" style="fill:#356999;fill-rule:nonzero;"/>
      </g>
      <g transform="matrix(176,0,0,176,544.943,152.065)">
        <path d="M0.449,-0.062l0,0.062l-0.138,-0l-0.006,-0.036c-0.021,0.016 -0.042,0.028 -0.064,0.036c-0.02,0.007 -0.044,0.011 -0.07,0.011c-0.04,0 -0.072,-0.011 -0.097,-0.033c-0.025,-0.022 -0.037,-0.05 -0.037,-0.084c0,-0.043 0.015,-0.074 0.044,-0.094c0.029,-0.02 0.067,-0.03 0.114,-0.03c0.034,0 0.068,0.004 0.103,0.013l-0,-0.035c-0,-0.029 -0.008,-0.05 -0.023,-0.065c-0.015,-0.015 -0.037,-0.022 -0.065,-0.022c-0.019,0 -0.04,0.003 -0.064,0.01c-0.024,0.006 -0.047,0.015 -0.07,0.026l-0.025,-0.058c0.025,-0.015 0.052,-0.026 0.082,-0.033c0.031,-0.007 0.06,-0.011 0.087,-0.011c0.053,0 0.095,0.013 0.126,0.04c0.03,0.026 0.045,0.061 0.045,0.106l0,0.197l0.058,0Zm-0.325,-0.05c0,0.019 0.006,0.035 0.019,0.047c0.012,0.012 0.029,0.018 0.05,0.018c0.035,0 0.07,-0.013 0.105,-0.038l0,-0.083c-0.03,-0.008 -0.06,-0.012 -0.09,-0.012c-0.025,0 -0.045,0.005 -0.061,0.016c-0.015,0.011 -0.023,0.028 -0.023,0.052Z" style="fill:#356999;fill-rule:nonzero;"/>
      </g>
      <g transform="matrix(176,0,0,176,622.911,152.065)">
        <path d="M0.023,-0l0,-0.062l0.068,0l0,-0.453l-0.066,0l0,-0.062l0.16,0l0,0.366l0.159,-0.122l-0.067,-0l0,-0.062l0.214,-0l0,0.062l-0.055,-0l-0.157,0.124l0.146,0.147l0.068,-0l-0,0.062l-0.122,-0l-0.186,-0.194l-0,0.132l0.06,-0l-0,0.062l-0.222,-0Z" style="fill:#356999;fill-rule:nonzero;"/>
      </g>
      <g transform="matrix(176,0,0,176,710.559,152.065)">
        <path d="M0.297,-0.401c0.025,0 0.052,0.006 0.079,0.019l-0.021,0.082c-0.024,-0.015 -0.048,-0.022 -0.073,-0.022c-0.025,0 -0.045,0.01 -0.062,0.029c-0.017,0.018 -0.025,0.045 -0.025,0.078l-0.001,0.153l0.066,-0l0,0.062l-0.229,-0l0,-0.062l0.069,-0l0,-0.271l-0.069,-0l0,-0.062l0.163,-0l0,0.073c0.023,-0.053 0.057,-0.079 0.103,-0.079Z" style="fill:#356999;fill-rule:nonzero;"/>
      </g>
      <g transform="matrix(202,0,0,202,751.567,152.065)">
        <path d="M0.121,0.012c-0.015,0 -0.028,-0.006 -0.039,-0.017c-0.011,-0.01 -0.016,-0.024 -0.016,-0.041c0,-0.017 0.005,-0.032 0.016,-0.042c0.011,-0.011 0.024,-0.017 0.039,-0.017c0.015,0 0.028,0.006 0.039,0.017c0.011,0.01 0.016,0.025 0.016,0.042c0,0.017 -0.005,0.03 -0.016,0.041c-0.011,0.011 -0.024,0.017 -0.039,0.017Z" style="fill:#d9777a;fill-rule:nonzero;"/>
      </g>
    </g>
  </g>
</svg>