<svg id="Layer_1" data-name="Layer 1" xmlns="http://www.w3.org/2000/svg" viewBox="0 0 374.88 71.98"><defs><style>.cls-1{fill:#606060;}.cls-2{fill:#3b933b;}.cls-3{fill:#fff;}</style></defs><path class="cls-1" d="M158.19,247.8V223.47l11.12,14.21,10.94-14.21V247.8h-4.16V240c0-.75,0-1.59,0-2.52s.1-2,.24-3.18c-.54.91-1.07,1.7-1.57,2.38s-1,1.31-1.39,1.89l-4.16,5.67-4.32-5.67-1.41-1.93c-.54-.74-1.07-1.55-1.6-2.42.14,1.24.23,2.32.25,3.25s0,1.77,0,2.53v7.8Z" transform="translate(-70.44 -198.5)"/><path class="cls-1" d="M192.83,248.27a9.3,9.3,0,0,1-4.59-1.1,7.93,7.93,0,0,1-3.11-3A8.54,8.54,0,0,1,184,239.8a8.24,8.24,0,0,1,12.26-7.12,7.88,7.88,0,0,1,2.9,2.86,8,8,0,0,1,1.07,4.12v1.5h-9.76a10.6,10.6,0,0,1-1.28-.08c-.42-.05-.84-.12-1.26-.19a4.53,4.53,0,0,0,1.65,2.79,5.15,5.15,0,0,0,3.35,1.09,5.82,5.82,0,0,0,2.69-.62,6.22,6.22,0,0,0,2-1.56l.94,3.85a8.32,8.32,0,0,1-2.64,1.38A10.5,10.5,0,0,1,192.83,248.27Zm-5-9.91a13.22,13.22,0,0,1,2.64-.27h3.37c.47,0,.92,0,1.34,0a8.89,8.89,0,0,1,1.2.17,4.44,4.44,0,0,0-1.53-2.43,4.23,4.23,0,0,0-2.73-.92,4.18,4.18,0,0,0-2.73,1A4.62,4.62,0,0,0,187.84,238.36Z" transform="translate(-70.44 -198.5)"/><path class="cls-1" d="M207.93,248.27a9.91,9.91,0,0,1-3.06-.51,6.14,6.14,0,0,1-2.51-1.45l1-4a6.3,6.3,0,0,0,2.06,1.86,5.25,5.25,0,0,0,2.71.76,2.24,2.24,0,0,0,1.5-.42,1.31,1.31,0,0,0,.49-1,1.16,1.16,0,0,0-.5-1,4.5,4.5,0,0,0-1-.51l-2.17-.81c-.45-.19-1-.45-1.59-.77a4.76,4.76,0,0,1-1.59-1.39,3.91,3.91,0,0,1-.66-2.37,4.77,4.77,0,0,1,.65-2.46,4.93,4.93,0,0,1,1.91-1.82,6.1,6.1,0,0,1,3-.69,8.49,8.49,0,0,1,3,.54,5.59,5.59,0,0,1,2.17,1.32l-1,3.87a5.79,5.79,0,0,0-2-1.79,4.83,4.83,0,0,0-2.29-.64,2,2,0,0,0-1.35.4,1.26,1.26,0,0,0-.46,1,1.2,1.2,0,0,0,.32.77,2.36,2.36,0,0,0,1,.64l2.06.79a11.62,11.62,0,0,1,1.78.8,4.92,4.92,0,0,1,1.67,1.42,4.09,4.09,0,0,1,.69,2.51,4.58,4.58,0,0,1-1.64,3.64A6.26,6.26,0,0,1,207.93,248.27Z" transform="translate(-70.44 -198.5)"/><path class="cls-1" d="M221.67,248.27a9.86,9.86,0,0,1-3.06-.51,6.08,6.08,0,0,1-2.51-1.45l1-4a6.2,6.2,0,0,0,2.06,1.86,5.22,5.22,0,0,0,2.71.76,2.24,2.24,0,0,0,1.5-.42,1.33,1.33,0,0,0,.48-1,1.15,1.15,0,0,0-.49-1,5,5,0,0,0-1-.51l-2.17-.81c-.45-.19-1-.45-1.6-.77a4.73,4.73,0,0,1-1.58-1.39,3.92,3.92,0,0,1-.67-2.37,4.77,4.77,0,0,1,.66-2.46,4.87,4.87,0,0,1,1.91-1.82,6.1,6.1,0,0,1,3-.69,8.49,8.49,0,0,1,3,.54,5.67,5.67,0,0,1,2.17,1.32l-1,3.87a5.79,5.79,0,0,0-2-1.79,4.83,4.83,0,0,0-2.29-.64,2,2,0,0,0-1.35.4,1.23,1.23,0,0,0-.46,1,1.24,1.24,0,0,0,.31.77,2.34,2.34,0,0,0,1,.64l2.06.79a12.07,12.07,0,0,1,1.78.8,4.79,4.79,0,0,1,1.66,1.42,4,4,0,0,1,.7,2.51,4.58,4.58,0,0,1-1.64,3.64A6.28,6.28,0,0,1,221.67,248.27Z" transform="translate(-70.44 -198.5)"/><path class="cls-1" d="M230.07,255.65l5.21-10.44-6.47-13.11h4.56l2.93,6,.68,1.52a14.15,14.15,0,0,1,.55,1.46c.19-.5.39-1,.6-1.46s.45-1,.73-1.52l3-6h4.39l-11.69,23.55Z" transform="translate(-70.44 -198.5)"/><path class="cls-1" d="M257,247.8V224.25h6.78a10.52,10.52,0,0,1,4.12.72,7.44,7.44,0,0,1,2.72,1.91,8.08,8.08,0,0,1,1.52,2.57,8.18,8.18,0,0,1,.48,2.73,8.32,8.32,0,0,1-.47,2.68,7.49,7.49,0,0,1-4.24,4.48,10.47,10.47,0,0,1-4.13.72h-2.62v7.74Zm4.16-11.46h2.38a5.46,5.46,0,0,0,2.84-.63,3.69,3.69,0,0,0,1.49-1.58,4.49,4.49,0,0,0,.46-2,4.65,4.65,0,0,0-.43-1.93,3.62,3.62,0,0,0-1.48-1.61,5.49,5.49,0,0,0-2.88-.64h-2.38Z" transform="translate(-70.44 -198.5)"/><path class="cls-1" d="M275.42,247.8V232.1h3.71v2.75a5.63,5.63,0,0,1,5.11-2.91l.91,3.72a3.88,3.88,0,0,0-1.12-.16,4.29,4.29,0,0,0-3.27,1.31,5.22,5.22,0,0,0-1.23,3.72v7.27Z" transform="translate(-70.44 -198.5)"/><path class="cls-1" d="M294.44,248.27a8.26,8.26,0,0,1-4.25-1.12,8.46,8.46,0,0,1-3.05-3,8.35,8.35,0,0,1,0-8.39,8.49,8.49,0,0,1,3.05-3,8.54,8.54,0,0,1,8.49,0,8.65,8.65,0,0,1,3.05,3,8.27,8.27,0,0,1,0,8.38,8.65,8.65,0,0,1-3.05,3A8.2,8.2,0,0,1,294.44,248.27Zm0-3.74a4.38,4.38,0,0,0,2.31-.61,4.58,4.58,0,0,0,2.22-4,4.52,4.52,0,0,0-.6-2.31,4.6,4.6,0,0,0-1.62-1.66,4.31,4.31,0,0,0-2.31-.63,4.24,4.24,0,0,0-2.27.63,4.6,4.6,0,0,0-1.62,1.66,4.43,4.43,0,0,0-.61,2.31,4.48,4.48,0,0,0,.61,2.31,4.6,4.6,0,0,0,1.62,1.66A4.32,4.32,0,0,0,294.41,244.53Z" transform="translate(-70.44 -198.5)"/><path class="cls-1" d="M329.4,247.8V232.1h3.72v2.75a5.6,5.6,0,0,1,5.1-2.91l.91,3.72a3.83,3.83,0,0,0-1.12-.16,4.29,4.29,0,0,0-3.27,1.31,5.22,5.22,0,0,0-1.23,3.72v7.27Z" transform="translate(-70.44 -198.5)"/><path class="cls-1" d="M347.82,248.17a7.24,7.24,0,0,1-3.92-1.11A8.34,8.34,0,0,1,340,240a8.14,8.14,0,0,1,1.06-4.13,8.26,8.26,0,0,1,2.84-3,7.24,7.24,0,0,1,3.92-1.11,7.38,7.38,0,0,1,2.85.54,6.54,6.54,0,0,1,2.23,1.52v-1.7h3.61v15.7H352.9v-1.72a6.71,6.71,0,0,1-2.23,1.53A7.21,7.21,0,0,1,347.82,248.17Zm.5-3.64a4.16,4.16,0,0,0,2.26-.63,4.66,4.66,0,0,0,1.61-1.66,4.67,4.67,0,0,0,0-4.58,4.74,4.74,0,0,0-1.61-1.66,4.11,4.11,0,0,0-2.23-.63,4.19,4.19,0,0,0-2.27.63,4.74,4.74,0,0,0-1.61,1.66,4.67,4.67,0,0,0,0,4.58,4.66,4.66,0,0,0,1.61,1.66A4.14,4.14,0,0,0,348.32,244.53Z" transform="translate(-70.44 -198.5)"/><path class="cls-1" d="M360.36,247.8V232.1h3.71V234a5.35,5.35,0,0,1,2.1-1.74,6.14,6.14,0,0,1,2.64-.59,6,6,0,0,1,2.69.62,5.58,5.58,0,0,1,2.1,1.76,5.84,5.84,0,0,1,2.3-1.78,7.41,7.41,0,0,1,3-.6,6.54,6.54,0,0,1,3.17.79,6.17,6.17,0,0,1,2.38,2.27,6.75,6.75,0,0,1,.92,3.59v9.52h-4.14v-9a3.66,3.66,0,0,0-.85-2.48,2.85,2.85,0,0,0-2.29-1,3.46,3.46,0,0,0-1.54.37,2.82,2.82,0,0,0-1.18,1.12,3.79,3.79,0,0,0-.44,1.94v9h-4.14v-9a4,4,0,0,0-.39-1.79,3.14,3.14,0,0,0-1.1-1.26,3,3,0,0,0-1.65-.45,3.2,3.2,0,0,0-1.52.38,3.06,3.06,0,0,0-1.19,1.13,3.79,3.79,0,0,0-.46,1.94v9Z" transform="translate(-70.44 -198.5)"/><path class="cls-1" d="M388.88,247.8V232.1h3.72V234a5.25,5.25,0,0,1,2.09-1.74,6.2,6.2,0,0,1,2.64-.59,6.08,6.08,0,0,1,2.7.62,5.62,5.62,0,0,1,2.09,1.76,5.84,5.84,0,0,1,2.3-1.78,7.46,7.46,0,0,1,3-.6,6.5,6.5,0,0,1,3.16.79,6.17,6.17,0,0,1,2.38,2.27,6.75,6.75,0,0,1,.92,3.59v9.52h-4.13v-9a3.71,3.71,0,0,0-.85-2.48,2.86,2.86,0,0,0-2.29-1,3.47,3.47,0,0,0-1.55.37,2.82,2.82,0,0,0-1.18,1.12,3.89,3.89,0,0,0-.44,1.94v9h-4.14v-9a4,4,0,0,0-.39-1.79,3.14,3.14,0,0,0-1.1-1.26,3,3,0,0,0-1.65-.45,3.13,3.13,0,0,0-1.51.38,2.93,2.93,0,0,0-1.19,1.13,3.69,3.69,0,0,0-.46,1.94v9Z" transform="translate(-70.44 -198.5)"/><path class="cls-1" d="M425.36,248.27a9.28,9.28,0,0,1-4.59-1.1,7.89,7.89,0,0,1-3.12-3,8.53,8.53,0,0,1-1.11-4.35,8,8,0,0,1,4-7.1,8.52,8.52,0,0,1,8.23,0,7.85,7.85,0,0,1,4,7v1.5H423a10.86,10.86,0,0,1-1.28-.08c-.42-.05-.84-.12-1.26-.19a4.53,4.53,0,0,0,1.65,2.79,5.17,5.17,0,0,0,3.35,1.09,5.87,5.87,0,0,0,2.7-.62,6.33,6.33,0,0,0,2-1.56l.94,3.85a8.48,8.48,0,0,1-2.65,1.38A10.38,10.38,0,0,1,425.36,248.27Zm-5-9.91a13.29,13.29,0,0,1,2.64-.27h3.38c.47,0,.91,0,1.33,0a9.28,9.28,0,0,1,1.21.17,4.51,4.51,0,0,0-1.54-2.43,4.44,4.44,0,0,0-5.45,0A4.63,4.63,0,0,0,420.36,238.36Z" transform="translate(-70.44 -198.5)"/><path class="cls-1" d="M435.59,247.8V232.1h3.71v2.75a5.63,5.63,0,0,1,5.11-2.91l.91,3.72a3.83,3.83,0,0,0-1.12-.16,4.29,4.29,0,0,0-3.27,1.31,5.22,5.22,0,0,0-1.23,3.72v7.27Z" transform="translate(-70.44 -198.5)"/><path class="cls-2" d="M320.26,244.16a6.33,6.33,0,1,1,4.49-1.86A6.29,6.29,0,0,1,320.26,244.16Zm0-8.77a2.43,2.43,0,1,0,1.72.71A2.42,2.42,0,0,0,320.26,235.39Z" transform="translate(-70.44 -198.5)"/><path class="cls-2" d="M316.67,259.74A5.88,5.88,0,0,1,312.5,258L306,251.48a5.9,5.9,0,1,1,8.34-8.34l6.52,6.53a5.9,5.9,0,0,1-4.17,10.07Zm-6.52-14.42a2,2,0,0,0-1.41,3.4l6.53,6.53a2,2,0,0,0,2.81-2.82l-6.53-6.52A2,2,0,0,0,310.15,245.32Z" transform="translate(-70.44 -198.5)"/><circle class="cls-2" cx="35.99" cy="35.99" r="35.99"/><path class="cls-3" d="M113.35,231.72a8.38,8.38,0,1,1,5.92-2.45A8.31,8.31,0,0,1,113.35,231.72Zm0-12.55a4.18,4.18,0,0,0-2.95,7.13,4.28,4.28,0,0,0,5.91,0,4.18,4.18,0,0,0-3-7.13Z" transform="translate(-70.44 -198.5)"/><path class="cls-3" d="M108.22,254a7.74,7.74,0,0,1-5.48-2.27L93.4,242.4a7.74,7.74,0,0,1,10.95-10.94l9.34,9.34A7.74,7.74,0,0,1,108.22,254Zm-2.51-5.23a3.55,3.55,0,0,0,5-5l-9.34-9.34a3.55,3.55,0,0,0-5,5Z" transform="translate(-70.44 -198.5)"/></svg>