<svg id="Layer_1" data-name="Layer 1" xmlns="http://www.w3.org/2000/svg" viewBox="0 0 500 500"><defs><style>.cls-1{fill:#3b933b;}.cls-2{fill:#fff;}</style></defs><circle class="cls-1" cx="250" cy="250" r="250"/><path class="cls-2" d="M298.09,230.74a58.14,58.14,0,1,1,41.12-17A57.78,57.78,0,0,1,298.09,230.74Zm0-87.17a29,29,0,0,0-20.52,49.54c11,11,30.08,11,41,0a29,29,0,0,0-20.52-49.54Z" transform="translate(0)"/><path class="cls-2" d="M262.39,385.56a53.6,53.6,0,0,1-38-15.72L159.51,305a53.76,53.76,0,0,1,76-76l64.87,64.87a53.74,53.74,0,0,1-38,91.76ZM245,349.24a24.64,24.64,0,0,0,34.85-34.84l-64.88-64.87a24.63,24.63,0,1,0-34.83,34.84Z" transform="translate(0)"/></svg>